# xmcd
#
# Track frame offsets:
# 150
# 29937
# 71511
# 122898
# 149324
# 201901
#
# Disc length: 3844 seconds
#
# Revision: 0
# Processed by: cddbd v1.4PL0 Copyright (c) Steve Scherf et al.
# Submitted via: Audion 3.0.2 (http://www.panic.com/audion/)
#
DISCID=600f0206
DTITLE=Surface of Eceyon - Dragyyn
DYEAR=1900
DGENRE=
TTITLE0=Stolen Wind
TTITLE1=Council is Called
TTITLE2=Over Land, Over Ice
TTITLE3=Victory of Ice and Magyk
TTITLE4=By A Curious Vessyl
TTITLE5=Freeing the Wind
EXTD=
EXTT0=
EXTT1=
EXTT2=
EXTT3=
EXTT4=
EXTT5=
PLAYORDER=
